<?xml version="1.0" encoding="utf-8"?>
<?xml-stylesheet type="text/xsl" href="rss1.xsl"?>
<rss version="2.0" xmlns:atom="http://www.w3.org/2005/Atom" xmlns:content="http://purl.org/rss/1.0/modules/content/" xmlns:dc="http://purl.org/dc/elements/1.1/" xmlns:media="http://search.yahoo.com/mrss/">
<channel>
 <title>Getty</title>
 <link>http://www.gettyimg.com/</link>
 <atom:link href="http://www.gettyimg.com/" rel="self" type="application/rss+xml" />

 
                <item>
                <title><![CDATA[【WEB MASTER】Yello - Touch Yello: The Virtual Concert [WebMaster 1080p / PCM 24-bit 48 kHz]]]></title>
                <link><![CDATA[https://sharemania.us/threads/yello-touch-yello-the-virtual-concert-webmaster-1080p-pcm-24-bit-48-khz.219545/]]></link>
                <description><![CDATA[<article>
<blockquote class="messageText SelectQuoteContainer ugc baseHtml">
<img src="https://images2.imgbox.com/19/a5/kpfdJIDp_o.jpg" class="bbCodeImage LbImage" alt="[​IMG]" data-url="https://images2.imgbox.com/19/a5/kpfdJIDp_o.jpg" style=""><br>
<img src="https://images2.imgbox.com/0f/24/fHFnk5oV_o.jpg" class="bbCodeImage LbImage" alt="[​IMG]" data-url="https://images2.imgbox.com/0f/24/fHFnk5oV_o.jpg" style=""><br>
<br>
<b>Genre: <span style="color: #0059b3">Electronic, Jazz</span><br>
Style: <span style="color: #0059b3">Lounge, House, Future Jazz, Downtempo</span> <br>
Year: <span style="color: #0059b3">2009</span><br>
Source: <span style="color: #0059b3">Vimeo, WebMaster (1080p mov with PCM)</span></b><br>
<br>
"<b>Touch Yello</b><i>"</i> is the 12th studio album by Swiss electronic band Yello, released on October 2, 2009.<br>
"<b>Touch Yello: The Virtual Concert</b>" was released to celebrate the 30 years anniversary of the duo. Touch Yello evokes moods, pictures, and movie scenes. For the creation of this virtual concert, they’re working with Kevin Blanc, a Swiss moving image designer, and art director. The premiere of Touch Yello was accompanied by live performances by the famous German jazz musician Till Brönner and singer Heidi Happy.<br>
<br>
Yello is, without doubt, one of the most influential bands in the wide and open context of Electronic music. From their earliest incarnation as slick Swiss guys with a strange back story making very odd Disco, their music has permeated everything from comedy films to contemporary art installations.<br>
<br>
<b>Tracklist</b><br>
01. Intro<br>
02. Till Tomorrow<br>
03. The Expert<br>
04. You Better Hide<br>
05. Out Of Dawn<br>
06. Bostich (Reflected)<br>
07. Kiss In Blue<br>
08. Vertical Vision<br>
09. Tiger Dust<br>
10. Tangier Blue<br>
11. Oh Yeah 2009<br>
12. The Race 2008<br>
13. Credits<br>
<br>
<b>Release Info</b><br>
This WebMaster is downloaded from Vimeo (1080p H.264 MOV / PCM 24-bit 48 kHz).<br>
I've muxed it with the chapters from the DVD release and named the chapters.<br>
<br>
<div class="ToggleTriggerAnchor bbCodeSpoilerContainer">
<button type="button" class="button bbCodeSpoilerButton ToggleTrigger Tooltip JsOnly" data-target="> .SpoilerTarget"><span>Spoiler: <span class="SpoilerTitle">Media Info</span></span></button>
<div class="SpoilerTarget bbCodeSpoilerText">
<div class="bbCodeBlock bbCodeCode">
<div class="type">Code:</div>
<pre>General
Unique ID                      : 184979237449014487804721143158247135413 (0x8B29B48B37CBC2A9E8733FF2E1F618B5)
Complete name                  : Yello - Touch Yello (The Virtual Concert).mkv
Format                         : Matroska
Format version                 : Version 4
File size                      : 6.41 GiB
Duration                       : 40 min 35 s
Overall bit rate               : 22.6 Mb/s
Encoded date                   : UTC 2023-04-21 16:19:26
Writing application            : mkvmerge v75.0.0 ('Goliath') 64-bit
Writing library                : libebml v1.4.4 + libmatroska v1.7.1

Video
ID                             : 1
Format                         : AVC
Format/Info                    : Advanced Video Codec
Format profile                 : Main@L4.1
Format settings                : 2 Ref Frames
Format settings, CABAC         : No
Format settings, Reference fra : 2 frames
Codec ID                       : V_MPEG4/ISO/AVC
Duration                       : 40 min 35 s
Bit rate                       : 20.3 Mb/s
Width                          : 1 920 pixels
Height                         : 1 080 pixels
Display aspect ratio           : 16:9
Frame rate mode                : Constant
Frame rate                     : 25.000 FPS
Color space                    : YUV
Chroma subsampling             : 4:2:0
Bit depth                      : 8 bits
Scan type                      : Progressive
Bits/(Pixel*Frame)             : 0.392
Stream size                    : 5.76 GiB (90%)
Default                        : Yes
Forced                         : No
Color range                    : Limited
Color primaries                : BT.709
Transfer characteristics       : BT.709
Matrix coefficients            : BT.709

Audio
ID                             : 2
Format                         : PCM
Format settings                : Little / Signed
Codec ID                       : A_PCM/INT/LIT
Duration                       : 40 min 35 s
Bit rate mode                  : Constant
Bit rate                       : 2 304 kb/s
Channel(s)                     : 2 channels
Sampling rate                  : 48.0 kHz
Frame rate                     : 2.000 FPS (24000 SPF)
Bit depth                      : 24 bits
Stream size                    : 669 MiB (10%)
Default                        : Yes
Forced                         : No

Menu
00:00:00.000                   : en:Intro
00:01:45.600                   : en:Till Tomorrow
00:05:15.840                   : en:The Expert
00:09:07.680                   : en:You Better Hide
00:13:29.280                   : en:Out Of Dawn
00:16:39.840                   : en:Bostich (Reflected)
00:20:38.400                   : en:Kiss In Blue
00:24:18.720                   : en:Vertical Vision
00:28:33.600                   : en:Tiger Dust
00:31:50.880                   : en:Tangier Blue
00:34:32.160                   : en:Oh Yeah 2009
00:36:56.160                   : en:The Race 2008
00:39:01.440                   : en:Credits
</pre>
</div></div>
</div><br>
<div class="bbCodeBlock bbCodeVfcHH HiddenContent">
<div class="attribution type">Hidden Content:</div>
<blockquote>You must reply before you can see the hidden data contained here.</blockquote>
</div>
<div class="messageTextEndMarker">&nbsp;</div>
</blockquote>
</article>]]></description>
                <author><![CDATA[ADHDerby]]></author>
                </item>

                </channel></rss>